REM MD5 2407b70ad37bc9f728891dbe471bc084
FILE "Dengeki PlayStation D34 (Japan).bin" BINARY
  TRACK 01 MODE2/2352
    INDEX 01 00:00:00
  TRACK 02 AUDIO
    INDEX 00 56:50:42
    INDEX 01 56:52:42
  TRACK 03 AUDIO
    INDEX 00 59:06:21
    INDEX 01 59:08:21
  TRACK 04 AUDIO
    INDEX 00 62:10:71
    INDEX 01 62:12:71
REM LEADOUT 65:42:71
